<?xml version="1.0" encoding="utf-8"?>
<!-- Generator: Adobe Illustrator 16.0.0, SVG Export Plug-In . SVG Version: 6.00 Build 0)  -->
<!DOCTYPE svg PUBLIC "-//W3C//DTD SVG 1.1//EN" "http://www.w3.org/Graphics/SVG/1.1/DTD/svg11.dtd">
<svg version="1.1" id="Layer_1" xmlns="http://www.w3.org/2000/svg" xmlns:xlink="http://www.w3.org/1999/xlink" x="0px" y="0px"
	 width="284px" height="114px" viewBox="0 0 284 114" enable-background="new 0 0 284 114" xml:space="preserve">
<path fill-rule="evenodd" clip-rule="evenodd" fill="#D9261C" d="M208.344,61.319c10.692-3.087,19.115-6.063,25.278-8.938
	c6.154-2.864,9.235-5.226,9.235-7.068c0-1.147-0.812-1.886-2.437-2.224c-1.633-0.329-4.027-0.256-7.201,0.228
	c-0.971,0.148-2.135,0.351-3.508,0.61c-1.373,0.259-2.27,0.421-2.68,0.484c-1.783,0.272-3.273,0.382-4.487,0.341
	c-1.206-0.042-2.127-0.236-2.747-0.586c-0.209-0.119-0.535-0.395-0.979-0.847c-0.443-0.443-0.82-0.788-1.13-1.016
	c-0.469-0.339-1.189-0.456-2.16-0.357c-0.394,0.043-0.688,0.071-0.88,0.083c-0.586,0.014-1.038-0.143-1.339-0.465
	c-0.302-0.322-0.453-0.811-0.453-1.463c0-1.214,0.503-2.589,1.499-4.13c0.997-1.542,2.429-3.158,4.287-4.849
	c2.034-1.817,4.505-3.617,7.436-5.413c2.931-1.795,6.112-3.469,9.545-5.022c1.909-0.869,3.776-1.589,5.602-2.177
	c1.825-0.589,3.392-0.986,4.697-1.186c1.356-0.207,2.353-0.158,2.981,0.148c0.628,0.307,0.945,0.886,0.945,1.757
	c0,0.653-0.619,1.727-1.867,3.224c-0.619,0.764-1.088,1.363-1.397,1.787c-0.192,0.255-0.428,0.634-0.712,1.139
	c-0.553,0.98-1.139,1.521-1.767,1.617c-0.327,0.05-0.595-0.043-0.821-0.276c-0.218-0.244-0.326-0.562-0.326-0.972
	c0-0.083,0.009-0.194,0.025-0.347c0.017-0.145,0.024-0.264,0.024-0.347c0-0.343-0.1-0.571-0.284-0.693
	c-0.192-0.113-0.494-0.143-0.921-0.078c-0.511,0.078-1.34,0.296-2.487,0.664c-1.155,0.36-2.47,0.82-3.943,1.372
	c-2.596,0.982-4.84,1.869-6.715,2.657c-1.884,0.782-3.45,1.506-4.689,2.147c-2.06,1.068-3.625,2.094-4.688,3.076
	c-1.063,0.975-1.591,1.875-1.591,2.696c0,0.795,0.477,1.317,1.423,1.549c0.946,0.233,2.453,0.187,4.514-0.127
	c0.343-0.052,1.39-0.254,3.148-0.614c1.758-0.36,3.332-0.643,4.722-0.854c6.381-0.973,10.952-1.125,13.724-0.46
	c2.771,0.666,4.161,2.221,4.161,4.674c0,1.114-0.284,2.204-0.862,3.271c-0.569,1.066-1.406,2.048-2.495,2.951
	c-0.234,0.203-0.661,0.536-1.306,1.011c-2.094,1.592-3.886,3.113-5.367,4.544c-2.001,1.871-4.346,3.451-7.042,4.725
	c-0.36,0.172-0.62,0.295-0.787,0.371c-6.246,2.996-12.274,5.557-18.077,7.681c-5.803,2.132-9.797,3.36-11.974,3.692
	c-0.771,0.118-1.356,0.099-1.767-0.049c-0.41-0.146-0.611-0.434-0.611-0.836c0-0.544,0.745-1.444,2.244-2.703
	s2.328-2.08,2.495-2.466c0.042-0.098,0.101-0.258,0.167-0.461c0.276-0.778,0.687-1.436,1.231-1.954
	c1.516-1.445,2.847-2.619,3.993-3.522c1.147-0.904,1.909-1.38,2.286-1.438c0.243-0.037,0.452-0.002,0.637,0.112
	c0.176,0.116,0.269,0.261,0.269,0.437c0,0.46-0.679,1.376-2.035,2.764C209.524,60.06,208.847,60.766,208.344,61.319 M59.963,55.229
	c-2.612,3.178-5.208,6.597-7.778,10.245c-2.563,3.657-5.133,7.573-7.695,11.758l-3.458,5.584c-4.321,6.955-6.59,10.701-6.799,11.244
	c-0.05,0.116-0.109,0.275-0.167,0.46c-0.234,0.631-0.477,1.036-0.737,1.243c-0.184,0.146-0.385,0.269-0.62,0.38
	c-0.226,0.101-0.502,0.202-0.829,0.285c-0.46,0.129-0.988,0.326-1.583,0.567c-0.595,0.25-0.98,0.384-1.139,0.408
	c-0.268,0.041-0.469-0.021-0.603-0.192c-0.142-0.163-0.209-0.412-0.209-0.738c0-0.687,0.134-1.335,0.393-1.936
	c0.26-0.601,0.637-1.127,1.13-1.563c0.795-0.741,2.236-2.744,4.312-5.999c1.047-1.634,1.884-2.934,2.503-3.891
	c7.67-11.619,13.773-20.438,18.304-26.445c4.529-6.016,7.401-9.117,8.632-9.304c0.41-0.063,0.753,0.036,1.038,0.285
	c0.285,0.25,0.477,0.639,0.578,1.16c0.134,0.834,0.285,1.589,0.469,2.282c0.176,0.693,0.268,1.056,0.268,1.089
	c0,0.427-0.695,2.979-2.077,7.652c-1.382,4.673-2.563,9.19-3.542,13.543c3.709-5.765,6.707-10.174,8.976-13.216
	c2.277-3.044,4.237-5.277,5.886-6.692c0.754-0.911,1.398-1.587,1.943-2.021c0.536-0.434,1.047-0.687,1.516-0.759
	c0.72-0.109,1.273,0.141,1.658,0.752c0.385,0.611,0.578,1.536,0.578,2.784c0,1.206-0.762,4.202-2.277,8.98
	c-0.494,1.582-0.879,2.813-1.156,3.71c-0.603,2.034-1.038,3.591-1.297,4.669c-0.268,1.079-0.394,1.843-0.394,2.304
	c0,0.427,0.083,0.74,0.259,0.957c0.167,0.208,0.419,0.287,0.746,0.237c0.469-0.071,0.963-0.473,1.474-1.204
	c0.502-0.729,0.929-1.121,1.272-1.174c0.293-0.044,0.528,0.004,0.695,0.153c0.176,0.141,0.259,0.363,0.259,0.655
	c0,0.311-0.15,0.752-0.443,1.332c-0.294,0.572-0.695,1.203-1.198,1.883c-0.619,0.848-1.49,1.676-2.612,2.475
	c-1.122,0.8-1.959,1.236-2.512,1.321c-0.101,0.015-0.26,0.022-0.469,0.029c-0.209-0.002-0.376,0.007-0.485,0.023
	c-0.184,0.028-0.461,0.112-0.838,0.245c-0.376,0.142-0.653,0.226-0.837,0.254c-0.712,0.108-1.273-0.149-1.667-0.785
	c-0.394-0.635-0.586-1.585-0.586-2.841c0-1.331,1.541-6.196,4.63-14.613c0.971-2.602,1.716-4.633,2.261-6.105
	c-1.667,1.804-4.79,6.14-9.37,13c-2.143,3.208-3.827,5.708-5.057,7.512c-0.879,1.281-1.733,2.282-2.562,3.003
	s-1.583,1.138-2.27,1.242c-0.494,0.075-1.08-0.128-1.766-0.602c-0.687-0.473-1.03-0.965-1.03-1.467
	c0.426-2.016,1.038-4.998,1.842-8.964c0.469-2.383,1.071-4.819,1.8-7.316S58.933,57.981,59.963,55.229z"/>
<path fill-rule="evenodd" clip-rule="evenodd" fill="#0094DE" d="M210.093,39.509c0,0.246-0.187,0.701-0.559,1.366
	c-0.377,0.666-0.828,1.323-1.371,1.973c-0.628,0.733-1.206,1.339-1.743,1.813c-0.532,0.473-0.909,0.726-1.125,0.759
	c-0.146,0.022-0.262,0-0.347-0.063c-0.081-0.068-0.126-0.171-0.126-0.307c0-0.196,0.302-0.699,0.899-1.504
	c0.598-0.81,0.899-1.443,0.899-1.905c0-0.085-0.035-0.256-0.105-0.506c-0.065-0.251-0.101-0.462-0.101-0.638
	c0-0.316,0.326-0.803,0.984-1.461c0.07-0.071,0.121-0.119,0.146-0.153c0.182-0.178,0.387-0.396,0.618-0.657
	c0.367-0.408,0.653-0.627,0.869-0.66c0.347-0.053,0.608,0.088,0.789,0.422C210.002,38.327,210.093,38.831,210.093,39.509
	 M198.738,41.693c0.669,0.37,1.166,0.917,1.497,1.635c0.327,0.719,0.493,1.628,0.493,2.728c0,1.563-0.327,3.34-0.985,5.345
	s-1.547,3.899-2.663,5.677c-1.275,2.028-2.728,3.676-4.36,4.945c-1.627,1.269-3.245,2.027-4.853,2.272
	c-1.161,0.177-2.321,0.058-3.492-0.352c-1.165-0.41-2.245-1.085-3.235-2.023c-1.195-1.14-2.125-2.459-2.782-3.961
	c-0.659-1.497-0.985-3.05-0.985-4.658c0-1.287,0.257-2.546,0.773-3.786c0.513-1.233,1.321-2.527,2.422-3.871
	c1.03-1.247,2.216-2.322,3.563-3.231c1.341-0.902,2.466-1.426,3.37-1.564c0.096-0.015,0.176,0.008,0.241,0.064
	c0.065,0.061,0.096,0.141,0.096,0.236c0,0.628-0.377,1.052-1.136,1.279c-0.045,0.017-0.08,0.027-0.101,0.03
	c-1.552,0.442-2.894,1.546-4.028,3.322c-1.131,1.77-1.698,3.685-1.698,5.745c0,1.256,0.211,2.465,0.638,3.621
	s1.015,2.116,1.759,2.887c0.833,0.862,1.798,1.483,2.894,1.854c1.095,0.37,2.23,0.469,3.406,0.289
	c1.276-0.194,2.422-0.655,3.437-1.383c1.015-0.732,1.959-1.776,2.833-3.135c0.904-1.374,1.623-2.87,2.155-4.483
	c0.537-1.619,0.804-3.056,0.804-4.313c0-1.472-0.482-2.513-1.452-3.125c-0.964-0.611-2.386-0.776-4.27-0.489
	c-1.738,0.265-3.497,0.885-5.275,1.865c-1.783,0.98-3.09,2.023-3.924,3.13c-0.155,0.209-0.366,0.598-0.623,1.169
	c-0.261,0.567-0.522,0.874-0.788,0.914c-0.141,0.021-0.252-0.012-0.332-0.105c-0.085-0.088-0.126-0.222-0.126-0.398
	c0-1.397,0.438-2.493,1.312-3.29c0.105-0.096,0.191-0.174,0.246-0.229c1.839-1.772,3.627-3.161,5.376-4.16
	c1.743-1.005,3.486-1.638,5.22-1.901c1.109-0.169,1.984-0.147,2.627,0.062C197.433,40.52,198.08,40.979,198.738,41.693z
	 M163.028,48.897c-0.884-0.112-1.723-0.165-2.531-0.162c-0.804,0.007-1.588,0.066-2.352,0.183c-2.13,0.325-4.455,1.131-6.978,2.42
	c-0.608,0.309-0.979,0.471-1.105,0.49c-0.125,0.019-0.231,0.01-0.312-0.033c-0.075-0.044-0.115-0.108-0.115-0.199
	c0-0.136,0.11-0.318,0.336-0.548c0.227-0.23,0.618-0.557,1.181-0.974c1.462-1.118,3.045-2.058,4.753-2.82
	c1.708-0.758,3.336-1.257,4.889-1.494c2.1-0.32,4.054-0.332,5.862-0.035c1.809,0.302,3.401,0.898,4.777,1.798
	c1.166,0.751,2.04,1.628,2.628,2.624c0.582,0.991,0.874,2.107,0.874,3.343c0,1.778-0.553,3.555-1.663,5.333
	c-1.11,1.776-2.632,3.33-4.576,4.656c-0.227,0.181-0.543,0.465-0.944,0.848c-1.146,1.069-2.251,1.815-3.312,2.243
	c-1.764,0.711-3.165,1.246-4.194,1.604c-1.03,0.357-1.769,0.571-2.221,0.64c-0.236,0.036-0.433,0.021-0.599-0.05
	c-0.16-0.065-0.326-0.216-0.492-0.447c-0.125-0.187-0.361-0.401-0.698-0.642c-0.336-0.245-0.507-0.46-0.507-0.646
	c0-0.105,0.085-0.596,0.256-1.471s0.367-1.734,0.583-2.57c0.472-1.806,2.104-5.476,4.903-11.001
	C162.15,50.648,162.667,49.615,163.028,48.897z M165.561,49.495c-1.833,3.515-3.155,6.369-3.963,8.563
	c-0.81,2.192-1.216,3.993-1.216,5.395c0,0.743,0.16,1.242,0.477,1.495c0.321,0.247,0.874,0.313,1.658,0.194
	c0.939-0.144,1.919-0.459,2.934-0.95c1.015-0.486,1.944-1.095,2.789-1.821c1.069-0.917,1.903-1.948,2.501-3.09
	c0.599-1.136,0.899-2.257,0.899-3.357c0-1.401-0.532-2.661-1.598-3.78C168.978,51.024,167.485,50.141,165.561,49.495z
	 M141.717,57.863c-0.939-1.042-1.612-1.934-2.019-2.666c-0.407-0.731-0.613-1.408-0.613-2.026c0-0.547,0.146-1.067,0.432-1.548
	c0.292-0.486,0.729-0.955,1.321-1.412c0.683-0.662,1.372-1.174,2.065-1.526c0.693-0.356,1.492-0.604,2.391-0.741
	c0.719-0.109,1.236-0.133,1.553-0.066c0.322,0.062,0.538,0.224,0.658,0.478c0.011,0.028,0.025,0.172,0.056,0.418
	c0.03,0.251,0.08,0.475,0.15,0.67c0.055,0.167,0.161,0.417,0.316,0.74c0.151,0.324,0.227,0.563,0.227,0.709
	c0,0.196-0.056,0.36-0.161,0.487c-0.11,0.132-0.246,0.208-0.412,0.233c-0.165,0.026-0.563-0.104-1.181-0.393
	c-0.412-0.193-0.738-0.345-0.984-0.458c-0.422-0.167-0.794-0.296-1.115-0.377c-0.327-0.086-0.558-0.116-0.693-0.095
	c-0.226,0.034-0.392,0.13-0.502,0.282c-0.106,0.152-0.161,0.376-0.161,0.672c0,0.342,0.105,0.728,0.316,1.153
	c0.211,0.425,0.598,0.984,1.155,1.683c0.286,0.369,0.684,0.846,1.19,1.421c0.915,1.051,1.372,1.755,1.372,2.117
	c0,0.321-0.141,0.64-0.422,0.938c-0.277,0.304-0.648,0.541-1.11,0.706c-0.166,0.066-0.417,0.135-0.749,0.205
	c-0.336,0.071-0.577,0.134-0.724,0.196c-0.085,0.043-0.2,0.101-0.336,0.172c-0.217,0.118-0.361,0.186-0.428,0.195
	c-0.07,0.011-0.226-0.011-0.472-0.059c-0.864-0.165-1.703-0.183-2.517-0.059c-1.612,0.246-2.899,0.77-3.873,1.575
	c-0.97,0.807-1.457,1.745-1.457,2.815c0,1.366,0.809,2.443,2.421,3.237c1.618,0.793,3.542,1.022,5.777,0.682
	c1.231-0.188,2.451-0.61,3.668-1.268c0.307-0.162,0.502-0.253,0.588-0.266c0.141-0.021,0.261,0.011,0.361,0.101
	c0.105,0.085,0.155,0.197,0.155,0.338c0,0.186-0.2,0.428-0.603,0.73c-0.402,0.302-0.984,0.646-1.753,1.041
	c-1.155,0.588-2.257,1.057-3.296,1.412c-1.041,0.354-2.04,0.606-3.004,0.754c-2.04,0.311-3.803,0.203-5.29-0.328
	c-1.487-0.527-2.351-1.325-2.587-2.384c-0.226-0.614-0.372-1.074-0.437-1.38c-0.07-0.302-0.105-0.593-0.105-0.864
	c0-1.818,0.979-3.479,2.944-4.99C135.794,59.606,138.422,58.522,141.717,57.863z M109.063,62.874c0.432-1.191,1.121-2.352,2.07-3.48
	c0.944-1.124,2.125-2.188,3.537-3.188c1.442-1.043,2.979-1.906,4.617-2.588c1.633-0.681,3.265-1.146,4.893-1.394
	c1.904-0.291,3.14-0.328,3.718-0.12c0.573,0.214,0.859,0.794,0.859,1.732c0,0.483-0.105,0.871-0.322,1.17
	c-0.216,0.299-0.512,0.475-0.884,0.532c-0.121,0.019-0.388-0.021-0.809-0.113c-1.738-0.343-3.527-0.376-5.376-0.095
	c-3.049,0.465-5.511,1.534-7.379,3.201c-1.869,1.671-2.804,3.632-2.804,5.889c0,2.24,0.97,4.007,2.914,5.308
	c1.944,1.296,4.295,1.735,7.063,1.313c2.12-0.323,4.225-1.212,6.315-2.671c0.312-0.213,0.497-0.327,0.558-0.336
	c0.135-0.021,0.246-0.008,0.326,0.046c0.075,0.054,0.115,0.133,0.115,0.238c0,0.216-0.141,0.479-0.427,0.789
	c-0.286,0.31-0.754,0.702-1.412,1.185c-1.276,0.963-2.658,1.762-4.135,2.398c-1.482,0.639-2.954,1.068-4.416,1.291
	c-3.024,0.462-5.537,0.011-7.546-1.351c-2.005-1.362-3.01-3.259-3.01-5.695c0-0.824,0.116-1.55,0.352-2.174
	C108.118,64.139,108.51,63.511,109.063,62.874z M87.636,73.707l-0.633,0.097c-0.307,0.047-0.758,0.126-1.356,0.237
	c-0.518,0.079-0.919,0.06-1.206-0.053c-0.287-0.112-0.427-0.316-0.427-0.612c0-0.262,0.266-0.624,0.793-1.076
	c0.266-0.227,0.477-0.409,0.633-0.554c0.06-0.055,0.141-0.137,0.236-0.242c0.352-0.375,0.773-0.6,1.266-0.675
	c0.03-0.005,0.312-0.027,0.839-0.063c0.532-0.036,1.055-0.091,1.577-0.16l0.146-0.198c7.938-10.319,12.083-15.502,12.424-15.555
	c0.226-0.035,0.417,0.052,0.573,0.259c0.161,0.207,0.236,0.471,0.236,0.793c0,0.141-0.065,0.533-0.206,1.182
	c-0.628,3.07-0.939,6.011-0.939,8.824c0,1.03,0.005,1.768,0.015,2.213c0.01,0.445,0.02,0.831,0.04,1.149
	c0.276,0.019,0.498,0.085,0.663,0.195c0.166,0.11,0.251,0.238,0.251,0.389c0,0.216-0.07,0.402-0.206,0.56
	c-0.135,0.161-0.341,0.288-0.618,0.391c0,1.607,0.301,3.013,0.899,4.218c0.125,0.258,0.191,0.419,0.191,0.488
	c0,0.206-0.085,0.396-0.251,0.576c-0.166,0.176-0.361,0.281-0.587,0.315c-0.136,0.021-0.296,0.011-0.472-0.038
	c-0.176-0.049-0.281-0.067-0.322-0.062c-0.061,0.01-0.151,0.033-0.266,0.07c-0.121,0.039-0.196,0.061-0.236,0.066
	c-0.105,0.017-0.342-0.028-0.698-0.129c-0.357-0.102-0.583-0.223-0.673-0.354c-0.221-0.349-0.437-0.919-0.643-1.711
	c-0.207-0.793-0.382-1.74-0.518-2.84l-0.221,0.033c-0.618,0.095-1.573,0.36-2.864,0.799c-1.291,0.438-2.311,0.714-3.07,0.829
	c-0.332,0.051-0.663,0.102-0.995,0.147c-0.326,0.045-0.667,0.086-1.02,0.13c-1.266,1.882-2.818,4.213-4.652,6.994
	c-2.101,3.18-3.25,4.862-3.457,5.064c-0.111,0.092-0.447,0.294-1.02,0.603c-0.567,0.308-0.894,0.468-0.984,0.481
	c-0.167,0.025-0.307-0.004-0.417-0.092c-0.116-0.083-0.171-0.205-0.171-0.361c0-0.171,0.975-1.636,2.929-4.41
	C84.174,78.857,85.978,76.216,87.636,73.707z M91.7,70.44c0.558-0.085,1.432-0.174,2.618-0.27c1.19-0.091,2.104-0.185,2.753-0.284
	l0.899-0.137c0-0.12-0.005-0.29-0.015-0.521C97.945,69,97.94,68.82,97.94,68.694c0-1.347,0.105-2.714,0.321-4.113
	c0.216-1.395,0.543-2.836,0.975-4.313c-0.915,1.18-1.929,2.521-3.04,4.021C95.081,65.785,93.584,67.836,91.7,70.44z"/>
<path fill-rule="evenodd" clip-rule="evenodd" fill="#DE127A" d="M246.532,92.625c-0.375,0-0.762,0.065-1.163,0.195
	c-0.397,0.13-0.752,0.308-1.056,0.531c-0.682,0.484-1.021,1.016-1.021,1.599c0,0.275,0.1,0.496,0.301,0.665
	c0.204,0.168,0.475,0.251,0.814,0.251c0.363,0,0.756-0.074,1.175-0.226c0.422-0.149,0.803-0.351,1.15-0.604
	c0.304-0.218,0.552-0.469,0.741-0.752c0.191-0.28,0.286-0.537,0.286-0.768c0-0.277-0.109-0.492-0.325-0.648
	C247.22,92.711,246.919,92.632,246.532,92.625 M246.697,95.945c-1.071,0.72-2.148,1.08-3.226,1.08c-0.563,0-1.006-0.104-1.321-0.31
	c-0.192-0.121-0.346-0.292-0.464-0.508s-0.177-0.437-0.177-0.661c0-0.708,0.315-1.396,0.947-2.063
	c0.632-0.664,1.431-1.153,2.398-1.464c0.782-0.254,1.567-0.38,2.353-0.38c0.067,0,0.136,0.003,0.197,0.009
	c0.381,0.018,0.582,0.026,0.604,0.026c0.243,0,0.452-0.101,0.623-0.304c0.174-0.201,0.26-0.44,0.26-0.717
	c0-0.316-0.124-0.564-0.372-0.741c-0.247-0.175-0.596-0.263-1.044-0.263c-0.858,0-1.795,0.257-2.801,0.771
	c-0.168,0.085-0.304,0.13-0.407,0.13c-0.174,0-0.26-0.083-0.26-0.251c0-0.248,0.219-0.525,0.658-0.829
	c0.892-0.629,2.071-0.944,3.535-0.944c0.773,0,1.36,0.133,1.765,0.398c0.2,0.127,0.366,0.304,0.493,0.533
	c0.126,0.233,0.188,0.467,0.188,0.703c0,0.528-0.26,1.339-0.779,2.428l-1.254,2.63c-0.121,0.274-0.18,0.575-0.18,0.897
	c0,0.12-0.175,0.303-0.52,0.548c-0.346,0.245-0.604,0.369-0.779,0.369c-0.127,0-0.238-0.071-0.342-0.216
	c-0.101-0.144-0.151-0.31-0.151-0.492C246.644,96.229,246.662,96.102,246.697,95.945z M243.093,84.316
	c0.115,0,0.209,0.035,0.285,0.104c0.074,0.07,0.107,0.152,0.095,0.251c-0.029,0.266-0.127,0.56-0.298,0.888
	c-0.171,0.324-0.351,0.566-0.54,0.72c-0.18,0.145-0.439,0.292-0.778,0.442c-0.34,0.151-0.585,0.226-0.735,0.226
	c-0.186,0-0.277-0.104-0.277-0.313c0-0.189,0.098-0.473,0.289-0.85c0.195-0.378,0.39-0.661,0.584-0.853
	c0.146-0.14,0.366-0.275,0.668-0.411C242.683,84.384,242.918,84.316,243.093,84.316z M241.82,89.61l-0.726,1.398
	c-1.198,2.346-1.861,3.904-1.989,4.677c-0.044,0.195-0.203,0.39-0.475,0.579c-0.594,0.41-0.997,0.613-1.21,0.613
	c-0.121,0-0.218-0.045-0.295-0.133c-0.074-0.092-0.112-0.207-0.112-0.351c0-0.611,0.469-1.865,1.41-3.76l1.14-2.299
	c0.139-0.283,0.274-0.572,0.407-0.864c0.108-0.236,0.209-0.398,0.295-0.49c0.086-0.089,0.221-0.165,0.407-0.228
	c0.546-0.186,0.903-0.276,1.071-0.276c0.242,0,0.362,0.129,0.362,0.389C242.106,88.987,242.013,89.235,241.82,89.61z
	 M236.065,92.159l-0.744,1.623c-0.327,0.756-0.54,1.357-0.632,1.809c-0.035,0.184-0.082,0.319-0.147,0.41
	c-0.062,0.089-0.18,0.192-0.354,0.308c-0.563,0.386-0.959,0.578-1.184,0.578c-0.271,0-0.407-0.18-0.407-0.537
	c0-0.171,0.068-0.473,0.204-0.903c0.135-0.428,0.289-0.835,0.46-1.212l0.614-1.343c0.386-0.823,0.631-1.373,0.734-1.646
	c0.104-0.275,0.156-0.514,0.156-0.721c0-0.232-0.08-0.419-0.242-0.566s-0.371-0.221-0.631-0.221c-0.34,0-0.743,0.124-1.21,0.371
	c-0.467,0.248-0.906,0.567-1.313,0.96c-0.53,0.507-1.039,1.177-1.525,2.012c-0.487,0.832-0.829,1.611-1.027,2.337
	c-0.073,0.277-0.139,0.455-0.194,0.528c-0.053,0.076-0.183,0.177-0.384,0.304c-0.64,0.398-1.044,0.597-1.219,0.597
	c-0.104,0-0.188-0.045-0.259-0.133c-0.068-0.092-0.104-0.204-0.104-0.343c0-0.578,0.648-2.178,1.944-4.801l0.685-1.39
	c0.133-0.248,0.225-0.448,0.277-0.599c0.091-0.27,0.183-0.452,0.271-0.543c0.089-0.093,0.26-0.181,0.514-0.26
	c0.513-0.175,0.841-0.261,0.985-0.261c0.271,0,0.407,0.125,0.407,0.372c0,0.156-0.086,0.393-0.26,0.709l-0.292,0.528
	c-0.018,0.029-0.026,0.056-0.026,0.079c0,0.05,0.026,0.076,0.076,0.076c0.029,0,0.104-0.044,0.219-0.13
	c0.631-0.483,1.28-0.873,1.944-1.168c0.661-0.292,1.23-0.439,1.703-0.439c0.472,0,0.847,0.142,1.121,0.425
	c0.277,0.28,0.416,0.661,0.416,1.139C236.644,90.622,236.451,91.307,236.065,92.159z M224.327,89.602
	c-0.392,0-0.811,0.153-1.263,0.463c-0.448,0.307-0.85,0.714-1.2,1.222c-0.308,0.445-0.556,0.941-0.744,1.493
	c-0.191,0.549-0.286,1.045-0.286,1.481c0,0.422,0.124,0.752,0.372,0.997s0.584,0.368,1.012,0.368c0.883,0,1.903-0.48,3.068-1.445
	c0.23-0.191,0.394-0.286,0.494-0.286c0.138,0,0.206,0.067,0.206,0.207c0,0.12-0.074,0.304-0.225,0.546
	c-0.15,0.241-0.33,0.469-0.537,0.684c-0.502,0.525-1.095,0.945-1.779,1.264c-0.687,0.315-1.343,0.475-1.971,0.475
	c-0.762,0-1.363-0.244-1.81-0.734c-0.387-0.429-0.578-0.965-0.578-1.617c0-0.731,0.187-1.479,0.561-2.242
	c0.375-0.765,0.897-1.47,1.567-2.113c0.628-0.599,1.293-1.065,1.991-1.393c0.7-0.327,1.379-0.492,2.028-0.492
	c0.53,0,0.935,0.126,1.209,0.38c0.283,0.248,0.425,0.569,0.425,0.968c0,0.472-0.213,0.877-0.641,1.21
	c-0.345,0.266-0.622,0.398-0.829,0.398c-0.18,0-0.268-0.077-0.268-0.232c0-0.06,0.009-0.131,0.026-0.216
	c0.029-0.133,0.044-0.266,0.044-0.398C225.201,89.94,224.909,89.613,224.327,89.602z M215.642,89.643
	c-0.622,0-1.289,0.377-1.997,1.13c-0.248,0.26-0.472,0.549-0.673,0.864c-0.204,0.319-0.304,0.538-0.304,0.658
	c0,0.139,0.156,0.207,0.466,0.207c0.744,0,1.387-0.133,1.927-0.398c0.393-0.194,0.721-0.457,0.986-0.791
	c0.265-0.33,0.397-0.646,0.397-0.944c0-0.224-0.07-0.4-0.212-0.528C216.091,89.714,215.896,89.648,215.642,89.643z M212.642,93.411
	c-0.334,0-0.502,0.318-0.502,0.959c0,0.415,0.132,0.746,0.401,0.994c0.269,0.247,0.625,0.372,1.067,0.372
	c1.154,0,2.32-0.525,3.503-1.573c0.201-0.18,0.363-0.269,0.484-0.269c0.156,0,0.232,0.064,0.232,0.198
	c0,0.191-0.162,0.472-0.489,0.843c-0.324,0.372-0.682,0.688-1.074,0.948c-0.501,0.333-1.08,0.604-1.729,0.811
	c-0.651,0.21-1.251,0.313-1.8,0.313c-0.731,0-1.315-0.192-1.759-0.575c-0.439-0.384-0.66-0.892-0.66-1.526
	c0-1.053,0.395-2.142,1.183-3.266c0.664-0.945,1.461-1.691,2.396-2.24c0.974-0.563,1.891-0.847,2.756-0.847
	c0.508,0,0.914,0.13,1.219,0.39c0.277,0.235,0.407,0.54,0.389,0.914c-0.022,0.461-0.251,0.953-0.687,1.477
	c-0.435,0.519-0.98,0.955-1.639,1.306c-0.961,0.521-1.867,0.779-2.714,0.779L212.642,93.411z M209.338,89.857l-0.658,0.027
	c-0.201,0.006-0.343,0.029-0.423,0.067c-0.082,0.042-0.165,0.124-0.251,0.251c-0.472,0.732-1,1.714-1.581,2.948
	c-0.328,0.693-0.493,1.213-0.493,1.566c0,0.248,0.086,0.445,0.254,0.596c0.171,0.15,0.398,0.225,0.679,0.225
	c0.575,0,1.287-0.266,2.128-0.794c0.188-0.114,0.297-0.174,0.327-0.174c0.068,0,0.104,0.038,0.104,0.112
	c0,0.206-0.257,0.52-0.771,0.936c-0.985,0.787-1.941,1.183-2.868,1.183c-0.502,0-0.918-0.147-1.245-0.445
	c-0.328-0.295-0.493-0.673-0.493-1.127c0-0.555,0.275-1.372,0.82-2.455l1.228-2.432c0.042-0.08,0.063-0.142,0.063-0.18
	c0-0.104-0.067-0.157-0.207-0.157c-0.012,0-0.026,0-0.044,0l-1.228,0.077c-0.109,0.012-0.171,0.018-0.183,0.018
	c-0.156,0-0.233-0.059-0.233-0.18c0-0.083,0.07-0.188,0.215-0.321c0.054-0.045,0.175-0.162,0.363-0.354
	c0.204-0.195,0.357-0.318,0.463-0.372c0.107-0.05,0.271-0.076,0.49-0.076h0.69c0.181,0,0.298-0.021,0.36-0.063
	c0.059-0.038,0.139-0.147,0.236-0.327l0.891-1.676c0.139-0.261,0.23-0.413,0.277-0.464c0.045-0.047,0.13-0.1,0.257-0.15
	c0.457-0.174,0.817-0.26,1.083-0.26c0.124,0,0.228,0.038,0.304,0.112c0.08,0.074,0.118,0.174,0.118,0.295
	c0,0.092-0.057,0.242-0.165,0.449l-0.803,1.528c-0.068,0.133-0.104,0.229-0.104,0.295c0,0.104,0.145,0.147,0.432,0.139l1.186-0.054
	c0.035,0,0.085,0,0.156,0c0.286,0,0.431,0.06,0.431,0.175c0,0.073-0.079,0.188-0.241,0.339c-0.162,0.154-0.352,0.299-0.569,0.437
	C210.049,89.746,209.718,89.84,209.338,89.857z M200.271,89.634c-0.431,0-0.883,0.147-1.349,0.445
	c-0.467,0.296-0.895,0.705-1.287,1.222c-0.339,0.451-0.607,0.936-0.799,1.458c-0.192,0.521-0.29,1.012-0.29,1.476
	c0,0.392,0.115,0.708,0.343,0.953c0.228,0.244,0.522,0.368,0.885,0.368c0.419,0,0.87-0.139,1.352-0.416
	c0.481-0.274,0.909-0.64,1.283-1.098c0.352-0.431,0.639-0.918,0.859-1.461c0.222-0.542,0.333-1.021,0.333-1.434
	c0-0.467-0.118-0.835-0.352-1.098C201.017,89.784,200.692,89.646,200.271,89.634z M201.117,88.482c0.723,0,1.28,0.192,1.673,0.576
	c0.396,0.383,0.593,0.929,0.593,1.637c0,0.646-0.188,1.335-0.566,2.063s-0.906,1.425-1.585,2.089
	c-0.716,0.702-1.454,1.239-2.215,1.608c-0.753,0.375-1.477,0.561-2.161,0.561c-0.616,0-1.118-0.188-1.504-0.566
	c-0.387-0.378-0.579-0.861-0.579-1.458c0-0.841,0.299-1.771,0.892-2.791c0.61-1.051,1.381-1.9,2.308-2.55
	C199.061,88.878,200.11,88.488,201.117,88.482z M189.04,93.836l1.886-4.02c0.188-0.404,0.313-0.646,0.365-0.729
	c0.057-0.08,0.147-0.153,0.275-0.225c0.599-0.315,1.026-0.475,1.28-0.475c0.213,0,0.318,0.1,0.318,0.304
	c0,0.145-0.07,0.331-0.209,0.561c-0.104,0.181-0.156,0.286-0.156,0.321c0,0.068,0.032,0.104,0.094,0.104
	c0.042,0,0.177-0.079,0.408-0.241c0.946-0.671,1.755-1.004,2.431-1.004c0.292,0,0.549,0.06,0.771,0.174
	c0.218,0.115,0.327,0.248,0.327,0.396c0,0.187-0.183,0.413-0.545,0.685c-0.42,0.316-0.727,0.476-0.915,0.476
	c-0.059,0-0.127-0.027-0.21-0.077c-0.269-0.168-0.522-0.251-0.758-0.251c-0.29,0-0.608,0.092-0.954,0.271
	c-0.345,0.184-0.64,0.41-0.882,0.688c-0.413,0.484-0.862,1.225-1.34,2.223c-0.478,0.997-0.82,1.905-1.029,2.724
	c-0.033,0.138-0.098,0.25-0.189,0.342c-0.091,0.089-0.271,0.216-0.537,0.384c-0.407,0.254-0.711,0.381-0.905,0.381
	c-0.277,0-0.416-0.166-0.416-0.493C188.149,95.954,188.447,95.116,189.04,93.836z M189.49,84.316c0.115,0,0.209,0.035,0.285,0.104
	c0.074,0.07,0.107,0.152,0.096,0.251c-0.03,0.266-0.128,0.56-0.298,0.888c-0.172,0.324-0.352,0.566-0.541,0.72
	c-0.18,0.145-0.439,0.292-0.778,0.442c-0.34,0.151-0.585,0.226-0.735,0.226c-0.186,0-0.277-0.104-0.277-0.313
	c0-0.189,0.098-0.473,0.29-0.85c0.194-0.378,0.389-0.661,0.583-0.853c0.146-0.14,0.366-0.275,0.667-0.411
	C189.08,84.384,189.315,84.316,189.49,84.316z M188.219,89.61l-0.727,1.398c-1.198,2.346-1.861,3.904-1.988,4.677
	c-0.045,0.195-0.204,0.39-0.476,0.579c-0.594,0.41-0.997,0.613-1.21,0.613c-0.121,0-0.218-0.045-0.295-0.133
	c-0.074-0.092-0.112-0.207-0.112-0.351c0-0.611,0.47-1.865,1.411-3.76l1.139-2.299c0.139-0.283,0.274-0.572,0.407-0.864
	c0.108-0.236,0.209-0.398,0.295-0.49c0.086-0.089,0.222-0.165,0.407-0.228c0.546-0.186,0.903-0.276,1.07-0.276
	c0.243,0,0.363,0.129,0.363,0.389C188.504,88.987,188.41,89.235,188.219,89.61z M180.89,86.005c-0.413,0-0.8,0.032-1.157,0.094
	c-0.359,0.064-0.596,0.142-0.711,0.233c-0.085,0.07-0.177,0.188-0.271,0.354c-0.094,0.168-0.39,0.714-0.879,1.645
	c-0.605,1.191-0.965,1.908-1.077,2.15s-0.168,0.407-0.168,0.502c0,0.139,0.13,0.206,0.389,0.206c0.635,0,1.334-0.13,2.102-0.393
	c0.767-0.263,1.428-0.596,1.982-0.997c0.479-0.354,0.859-0.755,1.146-1.207c0.286-0.451,0.428-0.879,0.428-1.283
	C182.672,86.443,182.078,86.01,180.89,86.005z M176.021,86.851l-0.431,0.113c-0.077,0.018-0.156,0.026-0.242,0.026
	c-0.26,0-0.389-0.098-0.389-0.296c0-0.145,0.085-0.274,0.259-0.392c0.172-0.118,0.472-0.254,0.9-0.401
	c1.124-0.388,2.101-0.661,2.93-0.817c0.83-0.16,1.688-0.239,2.576-0.239c1.071,0,1.853,0.133,2.344,0.398
	c0.266,0.145,0.478,0.363,0.64,0.66c0.162,0.296,0.242,0.614,0.242,0.957c0,0.672-0.236,1.337-0.708,1.991
	c-0.473,0.655-1.154,1.261-2.042,1.821c-1.239,0.775-2.57,1.313-3.993,1.607c-0.772,0.16-1.384,0.242-1.835,0.242
	c-0.171,0-0.289,0.029-0.349,0.088c-0.062,0.063-0.147,0.233-0.256,0.518c-0.322,0.896-0.531,1.607-0.632,2.127
	c-0.057,0.31-0.118,0.508-0.18,0.597c-0.065,0.085-0.242,0.209-0.537,0.371c-0.721,0.393-1.21,0.588-1.47,0.588
	c-0.18,0-0.269-0.118-0.269-0.354c0-0.455,0.251-1.36,0.755-2.715c0.505-1.354,1.089-2.691,1.753-4.013l1.125-2.231
	c0.15-0.298,0.224-0.472,0.224-0.516c0-0.109-0.062-0.166-0.183-0.166C176.203,86.815,176.127,86.828,176.021,86.851z"/>
<path fill-rule="evenodd" clip-rule="evenodd" fill="#1F1A17" d="M251.267,26.666c0.531,0,1.031,0.097,1.5,0.289
	c0.468,0.194,0.882,0.474,1.243,0.841c0.356,0.357,0.631,0.77,0.821,1.238c0.192,0.468,0.287,0.961,0.287,1.484
	c0,0.525-0.093,1.019-0.281,1.478c-0.187,0.459-0.463,0.867-0.827,1.224c-0.375,0.372-0.799,0.656-1.271,0.854
	c-0.475,0.199-0.964,0.297-1.472,0.297c-0.517,0-1.005-0.096-1.47-0.292c-0.464-0.194-0.879-0.478-1.243-0.849
	c-0.368-0.364-0.647-0.778-0.841-1.245c-0.192-0.467-0.289-0.955-0.289-1.468c0-0.504,0.099-0.994,0.298-1.468
	c0.197-0.475,0.482-0.9,0.854-1.275c0.354-0.36,0.759-0.635,1.219-0.825C250.253,26.761,250.744,26.666,251.267,26.666
	 M254.698,30.534c0-0.468-0.084-0.912-0.253-1.328c-0.167-0.416-0.409-0.784-0.725-1.102c-0.33-0.327-0.703-0.576-1.123-0.748
	c-0.418-0.174-0.863-0.26-1.331-0.26c-0.456,0-0.888,0.084-1.297,0.251c-0.407,0.168-0.773,0.414-1.097,0.735
	c-0.332,0.339-0.586,0.717-0.764,1.136c-0.178,0.418-0.266,0.854-0.266,1.304c0,0.452,0.086,0.884,0.26,1.297
	s0.424,0.784,0.75,1.113c0.328,0.327,0.699,0.576,1.114,0.748c0.412,0.174,0.847,0.26,1.299,0.26c0.456,0,0.894-0.088,1.316-0.262
	c0.422-0.176,0.8-0.427,1.138-0.757c0.319-0.31,0.562-0.669,0.729-1.072C254.616,31.445,254.698,31.007,254.698,30.534z
	 M251.381,28.237c0.623,0,1.086,0.1,1.386,0.3c0.3,0.199,0.448,0.508,0.448,0.925c0,0.313-0.095,0.573-0.283,0.782
	c-0.19,0.212-0.443,0.339-0.763,0.384l0.988,2.045h-0.762l-0.936-1.95h-1.034v1.95h-0.668v-4.437H251.381z M251.256,28.689h-0.83
	v1.593h0.83c0.468,0,0.798-0.059,0.986-0.176c0.188-0.119,0.283-0.318,0.283-0.598c0-0.291-0.1-0.5-0.299-0.628
	S251.702,28.689,251.256,28.689z"/>
</svg>
